EMG
version=1
nRows=34
nColumns=17
inDegrees=no
endheader
time	EMG01_right_gast_med	EMG02_right_glut_max	EMG03_left_gast_med	EMG04_left_glut_max	EMG05_right_glut_med	EMG06_right_bic_fem	EMG07_right_rect_fem	EMG08_right_vast_lat	EMG09_right_vast_med	EMG10_right_tens_fasc_lat	EMG11_left_glut_med	EMG12_left_bic_fem	EMG13_left_rect_fem	EMG14_left_vast_lat	EMG15_left_vast_med	EMG16_left_tens_fasc_lat
      1.92000000	     12.90888214	     72.70232391	   -261.16848755	    -33.87441254	     54.98380661	     12.76556969	    -10.11147213	      3.42462659	    230.50541687	    163.64221191	      0.51875544	     -2.91278601	      5.11037540	      3.98405313	      6.67909908	    -39.30434418
      1.93000000	     15.75136566	    -15.02292633	     -9.44667435	    -10.10566616	   -124.98889160	    -11.13738918	    -13.88488197	     20.10457230	    188.59671021	     87.08188629	      1.81519032	     -0.17793208	      7.13816595	     -1.02595484	    -12.77032089	    -56.57930756
      1.94000000	    -32.90396118	    -78.32317352	      8.64134884	     24.96020317	     59.09531021	    150.02868652	    -16.75896454	      0.43860555	    -17.92271805	    -27.06054115	     -4.89901829	     -3.21123314	      3.74733973	     -2.64115524	    -37.77607346	    -67.01707458
      1.95000000	    -24.84997749	    -64.55802917	     -2.41385698	      2.74613714	    703.20928955	    -46.17530823	     30.90283203	     -3.31506395	    -58.60071564	    -73.42342377	     -9.28072262	     -2.29862356	     12.40889549	      0.96447372	    -34.78682327	    -88.11226654
      1.96000000	    -61.49734116	    -71.20091248	     -2.24908733	     -3.65725756	     56.54550934	    168.24899292	    -41.25111008	    -86.07157135	    -30.88846207	   -154.65190125	     -0.30290794	     -1.54456687	     -6.31161594	      1.44377184	    -18.59807968	    -93.15603638
      1.97000000	    -24.23950958	    -81.66278076	      0.09059405	      0.06587081	   -370.18432617	    -99.76230621	     16.82515335	    -23.54224777	    -19.70004272	   -208.97673035	     -1.50491476	     -9.61921406	      4.17527628	    -11.73788643	    -13.96357632	    -65.21443939
      1.98000000	     95.03996277	    -97.40266418	     65.34923553	      0.32402086	   -393.09927368	   -117.15443420	     11.30644226	    -30.28608131	     51.38697433	   -169.02795410	     -3.10906076	     -6.87403584	     -0.15625191	    -10.76412296	      2.34605336	    -68.84937286
      1.99000000	      6.54719067	    -20.36760902	    -19.83362198	     -5.26492071	    246.47583008	   -102.89781952	     30.86114883	    -36.95046997	   -133.91589355	     57.51247025	     -5.62676811	     -7.05658627	      6.45468092	     -6.75446320	     38.71520233	    -62.89683533
      2.00000000	    -35.39478302	    129.85409546	     19.61727715	    -29.27473259	    318.53207397	     26.26131630	     18.53843307	     -3.08282661	   -285.41912842	    103.63670349	     -5.50764322	    -17.59260368	     11.03127098	     -6.06494522	     33.37995148	    -57.07148743
      2.01000000	    -55.53107834	    188.47814941	    -38.41788483	    -60.01486206	   -347.53097534	     79.06117249	    -24.67346191	     30.77476692	     -0.31101179	    -56.18529129	     -3.31622648	    -14.92883682	     -1.04718554	      4.60404444	     33.15254211	    -81.88808441
      2.02000000	    -59.27713776	     81.66772461	      7.02107620	    -63.02612305	   -245.94758606	    185.76205444	    -33.03715134	     37.49379349	    368.41229248	   -131.64439392	     -3.36401439	     -4.75152540	     -3.20595193	      6.47572756	     51.45532227	    -58.86783600
      2.03000000	    -24.82855606	    -57.58315277	      2.28742313	    -24.98352814	    145.94996643	     28.81479836	    -22.56799126	     59.00907135	     52.86454773	    -92.25581360	     -1.44471407	     -0.69555807	     -2.72257328	     17.96361732	     80.10773468	     -5.63394833
      2.04000000	     45.36901474	   -138.97715759	     -0.75831270	     20.90942955	    282.78140259	      6.03908300	    -29.64938736	    105.93236542	    116.26744843	    -67.74522400	     -1.69300532	      1.98889863	     -5.43834496	     15.49963093	     91.64734650	     -5.27748585
      2.05000000	     61.79712677	   -112.43552399	      1.89005291	    -35.53432846	    220.53280640	    -52.48374939	    -33.53789520	    102.16901398	    133.81184387	     -2.60992002	     -2.08507848	     -1.44111109	    -30.71876144	     31.95776749	     55.10287857	     10.56582069
      2.06000000	     21.89212799	    -70.61835480	      6.85963964	     22.21281242	     84.91561890	    -81.94721222	     -7.51998901	    -33.81700897	    141.88534546	     65.97734833	      6.44836998	     -7.87705374	    -13.48337746	     28.81704330	     24.67040443	    -35.31307602
      2.07000000	     41.62289429	     46.88973999	      8.98610973	    210.80450439	     22.25646973	   -120.96556091	     27.28910065	    -56.73833466	   -274.98922729	    112.93063354	     -5.04925871	     -4.85708141	    -14.29361439	     -6.98026943	      7.46301603	   -108.48885345
      2.08000000	    -29.99325943	     42.68262482	     14.80606365	    358.25152588	    -60.25147247	    -46.06465912	     34.18922043	    -71.68637848	   -380.38989258	    117.28143311	      9.87121582	     -2.45061350	    -14.18790722	    -46.34356689	     -7.75451660	   -168.77485657
      2.09000000	    -40.33958054	     24.20278549	      4.21257305	    698.59429932	     -0.64969563	    -16.19436264	     24.37722588	   -101.62484741	   -236.95024109	    157.65397644	      4.69110012	     -2.23143101	     -0.17640257	    -40.30625534	    -14.31165886	   -157.91212463
      2.10000000	     67.61649323	     13.88730049	      2.92186475	    761.07745361	    187.82460022	    -43.35119629	     27.50777435	    -93.18051147	     -4.02636433	    221.47601318	     -0.45874310	     -1.36778033	    -16.18172455	    -15.07393646	    -51.40117645	   -291.41928101
      2.11000000	    -57.91188049	    -22.14406586	      0.79361773	    396.59466553	    152.59103394	     -9.25878525	     12.29829216	    -36.94223022	      8.31110477	    242.73603821	     -2.78421068	    -14.15225697	     -4.00457811	     -2.51200533	   -119.36859894	   -522.24200439
      2.12000000	   -101.42195892	    -29.05853462	     -4.32378435	     28.69539261	     81.00415802	     -2.68419695	      2.14384770	    -11.32060623	     96.25309753	     73.66957092	     -1.87853277	     -7.75379658	     -2.15311766	    -10.56696129	   -142.32345581	   -393.56121826
      2.13000000	   -118.35428619	     60.80525589	    -12.70039940	   -136.86218262	    -41.11125183	      4.36401367	     -8.04545116	      4.59899902	    102.12911224	   -125.53812408	     -8.59375000	    -12.49898243	     11.21215820	    -12.47660255	    -89.17134857	   -177.95104980
      2.14000000	    207.85873413	    109.31616211	    -11.88926888	   -272.80844116	    -13.18154335	     -0.01741505	    -28.07009315	     10.38867474	    111.34583282	   -214.80206299	     -7.60871029	    -15.69064045	     -2.20579338	      3.13388205	    -20.26569176	    -28.59510803
      2.15000000	    101.61560059	    111.11846161	     -1.57567620	   -324.65591431	    -22.01354599	    -36.66374207	    -22.23811913	      4.95763016	     74.54415131	   -177.81176758	     -8.06935501	    -10.23302555	      2.42241001	    -13.96734810	     18.39474297	    205.50563049
      2.16000000	   -221.70094299	     89.70029449	     -0.50610310	   -442.99285889	   -143.23616028	     42.46577835	    -13.69244480	      6.78833914	     46.85592270	    -53.05282974	     -2.92822146	    -15.66068268	      9.06756496	    -12.92629433	     30.41253662	    339.44717407
      2.17000000	     20.19500542	     41.90216064	      8.41034889	   -450.94107056	    -19.48645782	     43.68035126	     -0.09263551	      0.21106339	     32.44525528	     -4.52826738	     -5.24690723	    -15.58596706	      8.94731140	    -18.93310547	     41.18553925	    305.36483765
      2.18000000	   -247.31083679	    -21.65663719	      8.13294983	   -360.98721313	    138.32128906	     15.55250931	    -11.55560398	      2.85486507	     48.60381317	      1.85401261	      5.80953169	     -9.06904221	      7.88403797	    -12.17061234	     53.33397675	    266.89749146
      2.19000000	      9.70690346	    -86.87536621	    -19.68589401	   -275.80120850	    181.77052307	      9.20126629	     -5.99345827	      4.62157393	     50.27290344	     20.58960152	     -0.74655390	    -10.76623535	      5.53389645	    -27.93918991	     56.75386429	    221.56623840
      2.20000000	     64.76641083	   -127.32409668	    -14.33681011	   -257.82415771	     37.25663376	     -1.06085730	     -5.93060875	      2.48168015	     71.87025452	     41.58657074	      1.86626840	     -6.23096275	      7.81185246	    -14.54964256	     47.26173401	    175.68170166
      2.21000000	     10.13792419	   -146.16542053	      1.03402328	   -162.20640564	    -81.05529785	    -10.81141472	     -2.90517616	      3.72054386	     80.45048523	     61.49260330	      3.26815844	     -4.01875830	      1.19879246	     -5.18914747	     28.96028900	    125.09239197
      2.22000000	     41.21432495	   -122.01913452	     -8.16559887	     -1.09368134	   -323.63656616	    -31.27911186	     -1.10363388	      6.24395418	     43.56548691	     44.01969910	     -1.90719175	      9.00409222	     -1.10369170	      1.79630089	      0.19117522	     73.33193207
      2.23000000	    -81.24926758	    -93.84928894	    -13.81586266	    153.04541016	   -340.83575439	    -39.95310974	     -4.65436888	      7.91981792	    -66.73036194	      9.43418121	     -4.56114769	      1.31001234	      3.42422104	     -6.04020452	    -35.74532318	     41.97116089
      2.24000000	    -70.21967316	    -30.51584053	    -14.34075451	    243.45114136	   -219.03257751	     12.57535076	     -4.16957474	      3.19920444	   -136.10122681	    -16.38450241	     -3.72619629	      7.91987944	     -1.35007882	      5.43790388	    -43.73916626	     27.57854271
      2.25000000	    -52.62536240	     13.93624878	     -2.96338487	    269.91137695	    -49.96439362	   -113.96122742	     -0.93529969	     -4.77235794	   -131.60928345	     26.42835045	     -3.33944416	      8.74336243	     -6.47477865	     15.43671417	    -74.26627350	     69.44297791
